<?xml version="1.0" ?>
<!-- Uploaded to: SVG Repo, www.svgrepo.com, Generator: SVG Repo Mixer Tools -->
<svg width="800px" height="800px" viewBox="0 0 64 64" id="svg5" version="1.1" xml:space="preserve" xmlns="http://www.w3.org/2000/svg" xmlns:svg="http://www.w3.org/2000/svg">
<defs id="defs2"/>
<g id="layer1" transform="translate(0,-672)">
<path d="m 35.974609,685.75 c -1.294747,0 -2.406111,0.84046 -2.822265,2 H 19.111328 c -2.275421,0 -4.219221,1.68698 -4.541016,3.93945 L 13.132812,701.75 H 12 c -3.3018276,0 -6,2.69814 -6,6 v 9 H 5 c -0.5522805,0 -1,0.44772 -1,1 0,0.55228 0.4477195,1 1,1 h 9.421875 c 0.775645,1.76137 2.538827,3 4.578125,3 2.039298,0 3.80248,-1.23863 4.578125,-3 h 16.84375 c 0.775645,1.76137 2.538827,3 4.578125,3 2.039298,0 3.80248,-1.23863 4.578125,-3 H 59 c 0.552277,0 1,-0.44772 1,-1 0,-0.55228 -0.447723,-1 -1,-1 h -1 v -9 c 0,-3.30186 -2.698169,-6 -6,-6 h -4.050781 c -0.229997,-1.10684 -1.206495,-1.95733 -2.367188,-1.99609 l -0.455078,-3.1836 c 1.089047,-0.57567 1.764406,-1.79474 1.582031,-3.07617 v -0.002 l -0.298828,-2.08594 v -0.002 C 45.948009,688.176 43.150008,685.75 39.888672,685.75 Z m 0,2 h 3.914063 c 2.269313,0 4.220101,1.69109 4.541016,3.9375 v 0.002 l 0.298828,2.08789 c 0.07825,0.55745 -0.290093,1.04928 -0.847657,1.12891 h -0.002 c -0.557706,0.08 -1.049829,-0.28843 -1.130859,-0.8457 v -0.002 l -0.296875,-2.08593 C 42.270986,690.71102 41.162791,689.75 39.888672,689.75 h -3.914063 c -0.564126,0 -1,-0.43587 -1,-1 0,-0.56413 0.435874,-1 1,-1 z m -16.863281,2 H 20 v 8 c 0,1.3677 1.132305,2.5 2.5,2.5 1.367695,0 2.5,-1.1323 2.5,-2.5 v -4 c 0,-0.2943 0.205703,-0.5 0.5,-0.5 0.294297,0 0.5,0.2057 0.5,0.5 v 1 c 0,1.3677 1.132305,2.5 2.5,2.5 0.170962,0 0.338146,-0.0172 0.5,-0.0508 V 701.75 H 15.152344 l 1.398437,-9.7793 c 0.183144,-1.282 1.265536,-2.2207 2.560547,-2.2207 z M 22,689.75 h 7 v 5 c 0,0.2943 -0.205703,0.5 -0.5,0.5 -0.294297,0 -0.5,-0.2057 -0.5,-0.5 v -1 c 0,-1.3677 -1.132305,-2.5 -2.5,-2.5 -1.367695,0 -2.5,1.1323 -2.5,2.5 v 4 c 0,0.2943 -0.205703,0.5 -0.5,0.5 -0.294297,0 -0.5,-0.2057 -0.5,-0.5 z m 9,0 h 2.152344 c 0.416154,1.15954 1.527518,2 2.822265,2 h 3.914063 c 0.3355,0 0.53463,0.1721 0.582031,0.50391 l 0.296875,2.08789 v 0.002 c 0.183987,1.28061 1.172933,2.26181 2.378906,2.50977 L 43.5625,699.75 H 38.5 c -1.196736,0 -2.213791,0.86702 -2.449219,2 H 31 Z m 7.5,12 h 7 c 0.294295,0 0.5,0.2057 0.5,0.5 0,0.2943 -0.205705,0.5 -0.5,0.5 H 40 c -0.552262,6e-5 -0.999945,0.44774 -1,1 v 2 c 0,0.2943 -0.205705,0.5 -0.5,0.5 -0.294295,0 -0.5,-0.2057 -0.5,-0.5 v -3.5 c 0,-0.2943 0.205705,-0.5 0.5,-0.5 z m -26.5,2 h 24 v 2 c 0,1.3677 1.132301,2.5 2.5,2.5 1.367699,0 2.5,-1.1323 2.5,-2.5 v -1 h 4.5 c 0.806641,0 1.529401,-0.39628 1.988281,-1 H 52 c 1.87435,0 3.429956,1.26954 3.871094,3 H 53 c -1.644998,0 -3,1.35499 -3,3 0,1.64501 1.355002,3 3,3 h 3 v 4 h -6 c 0,-2.74958 -2.250436,-5 -5,-5 -2.749564,0 -5,2.25042 -5,5 H 24 c 0,-2.74958 -2.250436,-5 -5,-5 -2.749564,0 -5,2.25042 -5,5 H 8 v -4 h 1 c 1.644997,0 3,-1.35499 3,-3 0,-1.64501 -1.355003,-3 -3,-3 H 8.1289062 c 0.4411368,-1.73046 1.9967438,-3 3.8710938,-3 z m -4,5 h 1 c 0.5641254,0 1,0.43587 1,1 0,0.56413 -0.4358746,1 -1,1 H 8 Z m 45,0 h 3 v 2 h -3 c -0.564124,0 -1,-0.43587 -1,-1 0,-0.56413 0.435876,-1 1,-1 z m -34,5 c 1.668689,0 3,1.3313 3,3 0,1.6687 -1.331311,3 -3,3 -1.668689,0 -3,-1.3313 -3,-3 0,-1.6687 1.331311,-3 3,-3 z m 26,0 c 1.668689,0 3,1.3313 3,3 0,1.6687 -1.331311,3 -3,3 -1.668689,0 -3,-1.3313 -3,-3 0,-1.6687 1.331311,-3 3,-3 z" id="rect37257" style="color:#000000;fill:#000000;fill-rule:evenodd;stroke-linecap:round;stroke-linejoin:round;stroke-miterlimit:4.1;-inkscape-stroke:none"/>
<path d="m 30,706.75 c -1.367701,0 -2.5,1.1323 -2.5,2.5 0,1.3677 1.132299,2.5 2.5,2.5 h 4 c 1.367701,0 2.5,-1.1323 2.5,-2.5 0,-1.3677 -1.132299,-2.5 -2.5,-2.5 z m 0,2 h 4 c 0.294297,0 0.5,0.2057 0.5,0.5 0,0.2943 -0.205703,0.5 -0.5,0.5 h -4 c -0.294297,0 -0.5,-0.2057 -0.5,-0.5 0,-0.2943 0.205703,-0.5 0.5,-0.5 z" id="rect43165" style="color:#000000;fill:#000000;fill-rule:evenodd;stroke-linecap:round;stroke-linejoin:round;stroke-miterlimit:4.1;-inkscape-stroke:none"/>
<path d="m 58,677.68681 v 0" id="path49149" style="color:#000000;fill:none;fill-rule:evenodd;stroke-width:2;stroke-linecap:round;stroke-linejoin:round;stroke-miterlimit:4.1"/>
<path d="m 58,676.68681 a 1,1 0 0 0 -1,1 1,1 0 0 0 1,1 1,1 0 0 0 1,-1 1,1 0 0 0 -1,-1 z" id="path49151" style="color:#000000;fill:#000000;fill-rule:evenodd;stroke-linecap:round;stroke-linejoin:round;stroke-miterlimit:4.1"/>
<path d="m 53.962891,688.59766 a 1,1 0 0 0 0,1.41406 l 1.414062,1.41406 a 1,1 0 0 0 1.414063,0 1,1 0 0 0 0,-1.41406 l -1.414063,-1.41406 a 1,1 0 0 0 -1.414062,0 z" id="path49163" style="color:#000000;fill:#000000;fill-rule:evenodd;stroke-linecap:round;stroke-linejoin:round;stroke-miterlimit:4.1;-inkscape-stroke:none"/>
<path d="m 49.720703,684.35547 a 1,1 0 0 0 0,1.41406 l 1.414063,1.41406 a 1,1 0 0 0 1.414062,0 1,1 0 0 0 0,-1.41406 l -1.414062,-1.41406 a 1,1 0 0 0 -1.414063,0 z" id="path49165" style="color:#000000;fill:#000000;fill-rule:evenodd;stroke-linecap:round;stroke-linejoin:round;stroke-miterlimit:4.1;-inkscape-stroke:none"/>
<path d="m 51.134766,688.59766 -1.414063,1.41406 a 1,1 0 0 0 0,1.41406 1,1 0 0 0 1.414063,0 l 1.414062,-1.41406 a 1,1 0 0 0 0,-1.41406 1,1 0 0 0 -1.414062,0 z" id="path49167" style="color:#000000;fill:#000000;fill-rule:evenodd;stroke-linecap:round;stroke-linejoin:round;stroke-miterlimit:4.1;-inkscape-stroke:none"/>
<path d="m 55.376953,684.35547 -1.414062,1.41406 a 1,1 0 0 0 0,1.41406 1,1 0 0 0 1.414062,0 l 1.414063,-1.41406 a 1,1 0 0 0 0,-1.41406 1,1 0 0 0 -1.414063,0 z" id="path49169" style="color:#000000;fill:#000000;fill-rule:evenodd;stroke-linecap:round;stroke-linejoin:round;stroke-miterlimit:4.1;-inkscape-stroke:none"/>
<path d="m 28.7761,680.77924 v 0" id="path49171" style="color:#000000;fill:none;fill-rule:evenodd;stroke-width:2;stroke-linecap:round;stroke-linejoin:round;stroke-miterlimit:4.1;-inkscape-stroke:none"/>
<path d="m 28.7761,679.77924 a 1,1 0 0 0 -1,1 1,1 0 0 0 1,1 1,1 0 0 0 1,-1 1,1 0 0 0 -1,-1 z" id="path49173" style="color:#000000;fill:#000000;fill-rule:evenodd;stroke-linecap:round;stroke-linejoin:round;stroke-miterlimit:4.1;-inkscape-stroke:none"/>
<path d="m 35.466797,726.01953 -1.931641,0.51758 a 1,1 0 0 0 -0.707031,1.22461 1,1 0 0 0 1.224609,0.70703 l 1.931641,-0.51758 a 1,1 0 0 0 0.707031,-1.22461 1,1 0 0 0 -1.224609,-0.70703 z" id="path49931" style="color:#000000;fill:#000000;fill-rule:evenodd;stroke-linecap:round;stroke-linejoin:round;stroke-miterlimit:4.1;-inkscape-stroke:none"/>
<path d="m 29.671875,727.57227 -1.931641,0.51757 a 1,1 0 0 0 -0.708984,1.22461 1,1 0 0 0 1.226562,0.70703 l 1.931641,-0.51757 a 1,1 0 0 0 0.707031,-1.22461 1,1 0 0 0 -1.224609,-0.70703 z" id="path49933" style="color:#000000;fill:#000000;fill-rule:evenodd;stroke-linecap:round;stroke-linejoin:round;stroke-miterlimit:4.1;-inkscape-stroke:none"/>
<path d="m 32.121094,728.98633 a 1,1 0 0 0 -0.707032,1.22461 l 0.517579,1.93164 a 1,1 0 0 0 1.224609,0.70703 1,1 0 0 0 0.707031,-1.22461 l -0.517578,-1.93164 a 1,1 0 0 0 -1.224609,-0.70703 z" id="path49935" style="color:#000000;fill:#000000;fill-rule:evenodd;stroke-linecap:round;stroke-linejoin:round;stroke-miterlimit:4.1;-inkscape-stroke:none"/>
<path d="m 30.568359,723.19141 a 1,1 0 0 0 -0.707031,1.22461 l 0.517578,1.93164 a 1,1 0 0 0 1.22461,0.70703 1,1 0 0 0 0.707031,-1.22461 l -0.517578,-1.93164 a 1,1 0 0 0 -1.22461,-0.70703 z" id="path49937" style="color:#000000;fill:#000000;fill-rule:evenodd;stroke-linecap:round;stroke-linejoin:round;stroke-miterlimit:4.1;-inkscape-stroke:none"/>
<path d="m 8.25723,679.63448 v 0" id="path49939" style="color:#000000;fill:none;fill-rule:evenodd;stroke-width:2;stroke-linecap:round;stroke-linejoin:round;stroke-miterlimit:4.1;-inkscape-stroke:none"/>
<path d="m 8.25723,678.63448 a 1,1 0 0 0 -1,1 1,1 0 0 0 1,1 1,1 0 0 0 1,-1 1,1 0 0 0 -1,-1 z" id="path49941" style="color:#000000;fill:#000000;fill-rule:evenodd;stroke-linecap:round;stroke-linejoin:round;stroke-miterlimit:4.1;-inkscape-stroke:none"/>
<path d="m 5.94161,692.28129 v 0" id="path49945" style="color:#000000;fill:none;fill-rule:evenodd;stroke-width:2;stroke-linecap:round;stroke-linejoin:round;stroke-miterlimit:4.1;-inkscape-stroke:none"/>
<path d="m 5.94161,691.28129 a 1,1 0 0 0 -1,1 1,1 0 0 0 1,1 1,1 0 0 0 1,-1 1,1 0 0 0 -1,-1 z" id="path49947" style="color:#000000;fill:#000000;fill-rule:evenodd;stroke-linecap:round;stroke-linejoin:round;stroke-miterlimit:4.1;-inkscape-stroke:none"/>
<path d="m 8.96231,728.92503 v 0" id="path49951" style="color:#000000;fill:none;fill-rule:evenodd;stroke-width:2;stroke-linecap:round;stroke-linejoin:round;stroke-miterlimit:4.1;-inkscape-stroke:none"/>
<path d="m 8.96231,727.92503 a 1,1 0 0 0 -1,1 1,1 0 0 0 1,1 1,1 0 0 0 1,-1 1,1 0 0 0 -1,-1 z" id="path49953" style="color:#000000;fill:#000000;fill-rule:evenodd;stroke-linecap:round;stroke-linejoin:round;stroke-miterlimit:4.1;-inkscape-stroke:none"/>
<path d="m 54.83921,726.76973 v 0" id="path49957" style="color:#000000;fill:none;fill-rule:evenodd;stroke-width:2;stroke-linecap:round;stroke-linejoin:round;stroke-miterlimit:4.1;-inkscape-stroke:none"/>
<path d="m 54.83921,725.76973 a 1,1 0 0 0 -1,1 1,1 0 0 0 1,1 1,1 0 0 0 1,-1 1,1 0 0 0 -1,-1 z" id="path49959" style="color:#000000;fill:#000000;fill-rule:evenodd;stroke-linecap:round;stroke-linejoin:round;stroke-miterlimit:4.1;-inkscape-stroke:none"/>
</g>
</svg>